<?xml version="1.0" encoding="UTF-8" standalone="no"?><svg xmlns="http://www.w3.org/2000/svg" xmlns:xlink="http://www.w3.org/1999/xlink" contentScriptType="application/ecmascript" contentStyleType="text/css" height="281px" preserveAspectRatio="none" style="width:492px;height:281px;" version="1.1" viewBox="0 0 492 281" width="492px" zoomAndPan="magnify"><defs><filter height="300%" id="frvn4wu" width="300%" x="-1" y="-1"><feGaussianBlur result="blurOut" stdDeviation="2.0"/><feColorMatrix in="blurOut" result="blurOut2" type="matrix" values="0 0 0 0 0 0 0 0 0 0 0 0 0 0 0 0 0 0 .4 0"/><feOffset dx="4.0" dy="4.0" in="blurOut2" result="blurOut3"/><feBlend in="SourceGraphic" in2="blurOut3" mode="normal"/></filter></defs><g><line style="stroke: #A80036; stroke-width: 1.0; stroke-dasharray: 5.0,5.0;" x1="63" x2="63" y1="39.6094" y2="241.7188"/><line style="stroke: #A80036; stroke-width: 1.0; stroke-dasharray: 5.0,5.0;" x1="432" x2="432" y1="39.6094" y2="241.7188"/><rect fill="#FEFECE" filter="url(#frvn4wu)" height="31.6094" style="stroke: #A80036; stroke-width: 1.5;" width="106" x="8" y="3"/><text fill="#000000" font-family="sans-serif" font-size="14" lengthAdjust="spacingAndGlyphs" textLength="92" x="15" y="24.5332">132.227.60.13</text><rect fill="#FEFECE" filter="url(#frvn4wu)" height="31.6094" style="stroke: #A80036; stroke-width: 1.5;" width="106" x="8" y="240.7188"/><text fill="#000000" font-family="sans-serif" font-size="14" lengthAdjust="spacingAndGlyphs" textLength="92" x="15" y="262.252">132.227.60.13</text><rect fill="#FEFECE" filter="url(#frvn4wu)" height="31.6094" style="stroke: #A80036; stroke-width: 1.5;" width="106" x="377" y="3"/><text fill="#000000" font-family="sans-serif" font-size="14" lengthAdjust="spacingAndGlyphs" textLength="92" x="384" y="24.5332">10.33.182.182</text><rect fill="#FEFECE" filter="url(#frvn4wu)" height="31.6094" style="stroke: #A80036; stroke-width: 1.5;" width="106" x="377" y="240.7188"/><text fill="#000000" font-family="sans-serif" font-size="14" lengthAdjust="spacingAndGlyphs" textLength="92" x="384" y="262.252">10.33.182.182</text><polygon fill="#A80036" points="420,67.6094,430,71.6094,420,75.6094,424,71.6094" style="stroke: #A80036; stroke-width: 1.0;"/><line style="stroke: #A80036; stroke-width: 1.0; stroke-dasharray: 2.0,2.0;" x1="63" x2="426" y1="71.6094" y2="71.6094"/><text fill="#000000" font-family="sans-serif" font-size="13" lengthAdjust="spacingAndGlyphs" textLength="317" x="70" y="67.1045">"80 =&gt; 3765 [SYN,ACK] AN: 1; SN: 0 Window=16060"</text><polygon fill="#A80036" points="420,97.9609,430,101.9609,420,105.9609,424,101.9609" style="stroke: #A80036; stroke-width: 1.0;"/><line style="stroke: #A80036; stroke-width: 1.0; stroke-dasharray: 2.0,2.0;" x1="63" x2="426" y1="101.9609" y2="101.9609"/><text fill="#000000" font-family="sans-serif" font-size="13" lengthAdjust="spacingAndGlyphs" textLength="128" x="70" y="97.4561">" (HTTP/1.0 200 OK) "</text><polygon fill="#A80036" points="420,128.3125,430,132.3125,420,136.3125,424,132.3125" style="stroke: #A80036; stroke-width: 1.0;"/><line style="stroke: #A80036; stroke-width: 1.0; stroke-dasharray: 2.0,2.0;" x1="63" x2="426" y1="132.3125" y2="132.3125"/><text fill="#000000" font-family="sans-serif" font-size="13" lengthAdjust="spacingAndGlyphs" textLength="338" x="70" y="127.8076">"80 =&gt; 3765 [PSH,ACK] AN: 204; SN: 80 Window=16060"</text><polygon fill="#A80036" points="420,158.6641,430,162.6641,420,166.6641,424,162.6641" style="stroke: #A80036; stroke-width: 1.0;"/><line style="stroke: #A80036; stroke-width: 1.0; stroke-dasharray: 2.0,2.0;" x1="63" x2="426" y1="162.6641" y2="162.6641"/><text fill="#000000" font-family="sans-serif" font-size="13" lengthAdjust="spacingAndGlyphs" textLength="345" x="70" y="158.1592">"80 =&gt; 3765 [PSH,ACK] AN: 244; SN: 120 Window=16060"</text><polygon fill="#A80036" points="420,189.0156,430,193.0156,420,197.0156,424,193.0156" style="stroke: #A80036; stroke-width: 1.0;"/><line style="stroke: #A80036; stroke-width: 1.0; stroke-dasharray: 2.0,2.0;" x1="63" x2="426" y1="193.0156" y2="193.0156"/><text fill="#000000" font-family="sans-serif" font-size="13" lengthAdjust="spacingAndGlyphs" textLength="307" x="70" y="188.5107">"80 =&gt; 3765 [FIN] AN: 284; SN: 160 Window=16060"</text><polygon fill="#A80036" points="420,219.3672,430,223.3672,420,227.3672,424,223.3672" style="stroke: #A80036; stroke-width: 1.0;"/><line style="stroke: #A80036; stroke-width: 1.0; stroke-dasharray: 2.0,2.0;" x1="63" x2="426" y1="223.3672" y2="223.3672"/><text fill="#000000" font-family="sans-serif" font-size="13" lengthAdjust="spacingAndGlyphs" textLength="314" x="70" y="218.8623">"80 =&gt; 3765 [ACK] AN: 324; SN: 360 Window=16060"</text></g></svg>